<mxfile host="app.diagrams.net" agent="Mozilla/5.0 (Macintosh; Intel Mac OS X 10_15_7) AppleWebKit/537.36 (KHTML, like Gecko) Chrome/129.0.0.0 Safari/537.36" version="24.7.16">
  <diagram name="Page-1" id="Z2tAvbOyLYjq5EB2KuB7">
    <mxGraphModel dx="794" dy="-299" grid="1" gridSize="10" guides="1" tooltips="1" connect="1" arrows="1" fold="1" page="1" pageScale="1" pageWidth="850" pageHeight="1100" math="0" shadow="0">
      <root>
        <mxCell id="0" />
        <mxCell id="1" parent="0" />
        <mxCell id="s7qDoOKbEl8hpaC53gJr-1" value="" style="group" vertex="1" connectable="0" parent="1">
          <mxGeometry x="106" y="1850" width="680" height="870" as="geometry" />
        </mxCell>
        <mxCell id="s7qDoOKbEl8hpaC53gJr-2" value="" style="rounded=1;whiteSpace=wrap;html=1;arcSize=2;" vertex="1" parent="s7qDoOKbEl8hpaC53gJr-1">
          <mxGeometry width="680" height="870" as="geometry" />
        </mxCell>
        <mxCell id="s7qDoOKbEl8hpaC53gJr-3" value="&lt;span style=&quot;color: rgb(0, 0, 0); font-family: Helvetica; font-size: 12px; font-style: normal; font-variant-ligatures: normal; font-variant-caps: normal; font-weight: 400; letter-spacing: normal; orphans: 2; text-align: center; text-indent: 0px; text-transform: none; widows: 2; word-spacing: 0px; -webkit-text-stroke-width: 0px; white-space: normal; background-color: rgb(251, 251, 251); text-decoration-thickness: initial; text-decoration-style: initial; text-decoration-color: initial; display: inline !important; float: none;&quot;&gt;[The new smartphone has a powerful processor and high-resolution camera, This text is about technology]&amp;nbsp;&lt;/span&gt;" style="text;whiteSpace=wrap;html=1;" vertex="1" parent="s7qDoOKbEl8hpaC53gJr-1">
          <mxGeometry x="54" y="30" width="570" height="30" as="geometry" />
        </mxCell>
        <mxCell id="s7qDoOKbEl8hpaC53gJr-4" value="&lt;span style=&quot;color: rgb(0, 0, 0); font-family: Helvetica; font-size: 12px; font-style: normal; font-variant-ligatures: normal; font-variant-caps: normal; font-weight: 400; letter-spacing: normal; orphans: 2; text-align: center; text-indent: 0px; text-transform: none; widows: 2; word-spacing: 0px; -webkit-text-stroke-width: 0px; white-space: normal; background-color: rgb(251, 251, 251); text-decoration-thickness: initial; text-decoration-style: initial; text-decoration-color: initial; display: inline !important; float: none;&quot;&gt;[The new smartphone has a powerful processor and high-resolution camera, This text is about food]&amp;nbsp;&lt;/span&gt;" style="text;whiteSpace=wrap;html=1;" vertex="1" parent="s7qDoOKbEl8hpaC53gJr-1">
          <mxGeometry x="54" y="60" width="570" height="30" as="geometry" />
        </mxCell>
        <mxCell id="s7qDoOKbEl8hpaC53gJr-5" style="edgeStyle=orthogonalEdgeStyle;rounded=0;orthogonalLoop=1;jettySize=auto;html=1;entryX=0.5;entryY=0;entryDx=0;entryDy=0;" edge="1" parent="s7qDoOKbEl8hpaC53gJr-1" source="s7qDoOKbEl8hpaC53gJr-6" target="s7qDoOKbEl8hpaC53gJr-8">
          <mxGeometry relative="1" as="geometry" />
        </mxCell>
        <mxCell id="s7qDoOKbEl8hpaC53gJr-6" value="&lt;span style=&quot;color: rgb(0, 0, 0); font-family: Helvetica; font-size: 12px; font-style: normal; font-variant-ligatures: normal; font-variant-caps: normal; font-weight: 400; letter-spacing: normal; orphans: 2; text-align: center; text-indent: 0px; text-transform: none; widows: 2; word-spacing: 0px; -webkit-text-stroke-width: 0px; white-space: normal; background-color: rgb(251, 251, 251); text-decoration-thickness: initial; text-decoration-style: initial; text-decoration-color: initial; display: inline !important; float: none;&quot;&gt;[The new smartphone has a powerful processor and high-resolution camera, This text is about sports]&amp;nbsp;&lt;/span&gt;" style="text;whiteSpace=wrap;html=1;" vertex="1" parent="s7qDoOKbEl8hpaC53gJr-1">
          <mxGeometry x="54" y="90" width="570" height="30" as="geometry" />
        </mxCell>
        <mxCell id="s7qDoOKbEl8hpaC53gJr-7" style="edgeStyle=orthogonalEdgeStyle;rounded=0;orthogonalLoop=1;jettySize=auto;html=1;" edge="1" parent="s7qDoOKbEl8hpaC53gJr-1" source="s7qDoOKbEl8hpaC53gJr-8" target="s7qDoOKbEl8hpaC53gJr-11">
          <mxGeometry relative="1" as="geometry" />
        </mxCell>
        <mxCell id="s7qDoOKbEl8hpaC53gJr-8" value="&lt;b&gt;Tokenization&lt;/b&gt;" style="rounded=1;whiteSpace=wrap;html=1;fillColor=#e1d5e7;strokeColor=#9673a6;" vertex="1" parent="s7qDoOKbEl8hpaC53gJr-1">
          <mxGeometry x="159" y="180" width="360" height="40" as="geometry" />
        </mxCell>
        <mxCell id="s7qDoOKbEl8hpaC53gJr-9" value="&lt;b style=&quot;forced-color-adjust: none; color: rgb(0, 0, 0); font-family: Helvetica; font-size: 12px; font-style: normal; font-variant-ligatures: normal; font-variant-caps: normal; letter-spacing: normal; orphans: 2; text-align: center; text-indent: 0px; text-transform: none; widows: 2; word-spacing: 0px; -webkit-text-stroke-width: 0px; white-space: normal; background-color: rgb(251, 251, 251); text-decoration-thickness: initial; text-decoration-style: initial; text-decoration-color: initial;&quot;&gt;&lt;font color=&quot;#007fff&quot; style=&quot;forced-color-adjust: none;&quot;&gt;Sentence pair&lt;/font&gt;&lt;/b&gt;" style="text;whiteSpace=wrap;html=1;" vertex="1" parent="s7qDoOKbEl8hpaC53gJr-1">
          <mxGeometry x="374" y="130" width="110" height="40" as="geometry" />
        </mxCell>
        <mxCell id="s7qDoOKbEl8hpaC53gJr-10" style="edgeStyle=orthogonalEdgeStyle;rounded=0;orthogonalLoop=1;jettySize=auto;html=1;" edge="1" parent="s7qDoOKbEl8hpaC53gJr-1" source="s7qDoOKbEl8hpaC53gJr-11" target="s7qDoOKbEl8hpaC53gJr-13">
          <mxGeometry relative="1" as="geometry" />
        </mxCell>
        <mxCell id="s7qDoOKbEl8hpaC53gJr-11" value="&lt;b&gt;NLI Model Logits&lt;/b&gt;" style="rounded=1;whiteSpace=wrap;html=1;fillColor=#e1d5e7;strokeColor=#9673a6;" vertex="1" parent="s7qDoOKbEl8hpaC53gJr-1">
          <mxGeometry x="159" y="260" width="360" height="40" as="geometry" />
        </mxCell>
        <mxCell id="s7qDoOKbEl8hpaC53gJr-12" value="&lt;b&gt;&lt;font color=&quot;#007fff&quot;&gt;Input Ids&lt;/font&gt;&lt;/b&gt;" style="text;html=1;align=center;verticalAlign=middle;whiteSpace=wrap;rounded=0;" vertex="1" parent="s7qDoOKbEl8hpaC53gJr-1">
          <mxGeometry x="381" y="230" width="60" height="30" as="geometry" />
        </mxCell>
        <mxCell id="s7qDoOKbEl8hpaC53gJr-13" value="&lt;div style=&quot;font-size: 16px;&quot;&gt;&lt;font style=&quot;font-size: 16px;&quot;&gt;&amp;nbsp; &amp;nbsp; &amp;nbsp; &amp;nbsp; [&amp;nbsp; &lt;font color=&quot;#007fff&quot;&gt;-3.0407&lt;/font&gt;,&amp;nbsp; &amp;nbsp; 1.2394,&amp;nbsp; &amp;nbsp;&amp;nbsp;&lt;font color=&quot;#007fff&quot;&gt;1.0576&lt;/font&gt;&lt;font color=&quot;#00cc00&quot;&gt;&amp;nbsp;&amp;nbsp;&lt;/font&gt;],&lt;/font&gt;&lt;/div&gt;&lt;div style=&quot;font-size: 16px;&quot;&gt;&lt;font style=&quot;font-size: 16px;&quot;&gt;&amp;nbsp; &amp;nbsp; &amp;nbsp; &amp;nbsp; [&amp;nbsp; &amp;nbsp;&lt;font color=&quot;#007fff&quot;&gt;4.1841&lt;/font&gt;,&amp;nbsp; &amp;nbsp;-0.7971,&amp;nbsp; &lt;font color=&quot;#007fff&quot;&gt;&amp;nbsp;-3.3593&amp;nbsp;&lt;/font&gt;&lt;font color=&quot;#00cc00&quot;&gt;&amp;nbsp;&lt;/font&gt;],&lt;/font&gt;&lt;/div&gt;&lt;div style=&quot;font-size: 16px;&quot;&gt;&lt;font style=&quot;font-size: 16px;&quot;&gt;&amp;nbsp; &amp;nbsp; &amp;nbsp; &amp;nbsp;[&amp;nbsp; &amp;nbsp;&lt;font color=&quot;#007fff&quot;&gt;3.1733&lt;/font&gt;,&amp;nbsp; &amp;nbsp;-0.3798,&amp;nbsp; &amp;nbsp;&lt;font color=&quot;#007fff&quot;&gt;-2.7141&amp;nbsp;&lt;/font&gt;&lt;font color=&quot;#00cc00&quot;&gt;&amp;nbsp;&lt;/font&gt;]&lt;/font&gt;&lt;/div&gt;" style="text;html=1;align=center;verticalAlign=middle;resizable=0;points=[];autosize=1;strokeColor=none;fillColor=none;" vertex="1" parent="s7qDoOKbEl8hpaC53gJr-1">
          <mxGeometry x="194" y="360" width="290" height="70" as="geometry" />
        </mxCell>
        <mxCell id="s7qDoOKbEl8hpaC53gJr-14" style="edgeStyle=orthogonalEdgeStyle;rounded=0;orthogonalLoop=1;jettySize=auto;html=1;" edge="1" parent="s7qDoOKbEl8hpaC53gJr-1" source="s7qDoOKbEl8hpaC53gJr-15" target="s7qDoOKbEl8hpaC53gJr-21">
          <mxGeometry relative="1" as="geometry" />
        </mxCell>
        <mxCell id="s7qDoOKbEl8hpaC53gJr-15" value="&lt;b&gt;Contradiction&lt;/b&gt;" style="rounded=0;whiteSpace=wrap;html=1;" vertex="1" parent="s7qDoOKbEl8hpaC53gJr-1">
          <mxGeometry x="189" y="450" width="90" height="20" as="geometry" />
        </mxCell>
        <mxCell id="s7qDoOKbEl8hpaC53gJr-16" style="edgeStyle=orthogonalEdgeStyle;rounded=0;orthogonalLoop=1;jettySize=auto;html=1;" edge="1" parent="s7qDoOKbEl8hpaC53gJr-1" source="s7qDoOKbEl8hpaC53gJr-17" target="s7qDoOKbEl8hpaC53gJr-21">
          <mxGeometry relative="1" as="geometry" />
        </mxCell>
        <mxCell id="s7qDoOKbEl8hpaC53gJr-17" value="&lt;b&gt;Entailment&lt;/b&gt;" style="rounded=0;whiteSpace=wrap;html=1;" vertex="1" parent="s7qDoOKbEl8hpaC53gJr-1">
          <mxGeometry x="399" y="450" width="90" height="20" as="geometry" />
        </mxCell>
        <mxCell id="s7qDoOKbEl8hpaC53gJr-18" value="&lt;b&gt;Neutral&lt;/b&gt;" style="rounded=0;whiteSpace=wrap;html=1;fillColor=#f8cecc;strokeColor=#b85450;" vertex="1" parent="s7qDoOKbEl8hpaC53gJr-1">
          <mxGeometry x="299" y="450" width="90" height="20" as="geometry" />
        </mxCell>
        <mxCell id="s7qDoOKbEl8hpaC53gJr-19" value="&lt;b&gt;&lt;font color=&quot;#007fff&quot;&gt;logits&lt;/font&gt;&lt;/b&gt;" style="text;html=1;align=center;verticalAlign=middle;whiteSpace=wrap;rounded=0;" vertex="1" parent="s7qDoOKbEl8hpaC53gJr-1">
          <mxGeometry x="381" y="318" width="60" height="30" as="geometry" />
        </mxCell>
        <mxCell id="s7qDoOKbEl8hpaC53gJr-20" style="edgeStyle=orthogonalEdgeStyle;rounded=0;orthogonalLoop=1;jettySize=auto;html=1;" edge="1" parent="s7qDoOKbEl8hpaC53gJr-1" source="s7qDoOKbEl8hpaC53gJr-21" target="s7qDoOKbEl8hpaC53gJr-22">
          <mxGeometry relative="1" as="geometry" />
        </mxCell>
        <mxCell id="s7qDoOKbEl8hpaC53gJr-21" value="&lt;b&gt;Softmax Function&lt;/b&gt;" style="rounded=1;whiteSpace=wrap;html=1;fillColor=#e1d5e7;strokeColor=#9673a6;" vertex="1" parent="s7qDoOKbEl8hpaC53gJr-1">
          <mxGeometry x="164" y="620" width="360" height="40" as="geometry" />
        </mxCell>
        <mxCell id="s7qDoOKbEl8hpaC53gJr-22" value="&lt;div style=&quot;font-size: 16px;&quot;&gt;&lt;div&gt;&amp;nbsp;[1.6330e-02,&amp;nbsp; &amp;nbsp;&amp;nbsp;&lt;font color=&quot;#00cc00&quot;&gt;9.8367e-01&lt;/font&gt;],&lt;/div&gt;&lt;div&gt;&amp;nbsp;[9.9947e-01,&amp;nbsp; &amp;nbsp;&amp;nbsp;&lt;font color=&quot;#97d077&quot;&gt;5.2929e-04&lt;/font&gt;],&lt;/div&gt;&lt;div&gt;&lt;span style=&quot;background-color: initial;&quot;&gt;[9.9723e-01,&amp;nbsp; &amp;nbsp;&amp;nbsp;&lt;font color=&quot;#97d077&quot;&gt;2.7665e-03&lt;/font&gt;]&lt;/span&gt;&lt;/div&gt;&lt;/div&gt;" style="text;html=1;align=center;verticalAlign=middle;resizable=0;points=[];autosize=1;strokeColor=none;fillColor=none;" vertex="1" parent="s7qDoOKbEl8hpaC53gJr-1">
          <mxGeometry x="229.5" y="730" width="230" height="70" as="geometry" />
        </mxCell>
        <mxCell id="s7qDoOKbEl8hpaC53gJr-23" value="&lt;b&gt;Entailment&lt;/b&gt;" style="rounded=0;whiteSpace=wrap;html=1;" vertex="1" parent="s7qDoOKbEl8hpaC53gJr-1">
          <mxGeometry x="351" y="810" width="90" height="20" as="geometry" />
        </mxCell>
        <mxCell id="s7qDoOKbEl8hpaC53gJr-24" value="" style="rounded=1;whiteSpace=wrap;html=1;fillColor=none;dashed=1;strokeColor=#82b366;" vertex="1" parent="s7qDoOKbEl8hpaC53gJr-1">
          <mxGeometry x="344" y="730" width="110" height="70" as="geometry" />
        </mxCell>
        <mxCell id="s7qDoOKbEl8hpaC53gJr-25" value="&lt;b&gt;Technology&lt;/b&gt;" style="rounded=0;whiteSpace=wrap;html=1;fillColor=#d5e8d4;strokeColor=#82b366;" vertex="1" parent="s7qDoOKbEl8hpaC53gJr-1">
          <mxGeometry x="474" y="735" width="90" height="20" as="geometry" />
        </mxCell>
        <mxCell id="s7qDoOKbEl8hpaC53gJr-26" value="&lt;b&gt;Food&lt;/b&gt;" style="rounded=0;whiteSpace=wrap;html=1;" vertex="1" parent="s7qDoOKbEl8hpaC53gJr-1">
          <mxGeometry x="474" y="758" width="90" height="20" as="geometry" />
        </mxCell>
        <mxCell id="s7qDoOKbEl8hpaC53gJr-27" value="&lt;b&gt;Sports&lt;/b&gt;" style="rounded=0;whiteSpace=wrap;html=1;" vertex="1" parent="s7qDoOKbEl8hpaC53gJr-1">
          <mxGeometry x="475" y="781" width="90" height="20" as="geometry" />
        </mxCell>
      </root>
    </mxGraphModel>
  </diagram>
</mxfile>
